<?xml version="1.0" encoding="UTF-8"?><svg id="Layer_2" xmlns="http://www.w3.org/2000/svg" viewBox="0 0 160 160"><defs><style>.cls-1{fill:#233959;}.cls-2{fill:#fff;}.cls-3{fill:none;stroke:#fff;stroke-miterlimit:10;stroke-width:2px;}</style></defs><g id="Layer_1-2"><rect class="cls-1" x="23.43" y="23.43" width="113.14" height="113.14" transform="translate(-33.14 80) rotate(-45)"/><polyline class="cls-2" points="41.3 97.98 55.81 91.2 46.44 81.84 39.69 96.27"/><polyline class="cls-2" points="55.1 111.09 69.6 104.31 60.24 94.95 53.49 109.38"/><polyline class="cls-2" points="66 122.68 80.5 115.9 71.14 106.53 64.39 120.97"/><polyline class="cls-3" points="111.34 109.57 82.11 138.8 23.66 80.35 82.11 21.9 111.34 51.12"/><path class="cls-2" d="M70.57,71.36c.06.1.11.21.15.31.04.11.08.25.13.42.02.06.04.13.06.2.21.68.6,1.21,1.18,1.58.58.37,1.25.55,1.99.55.39,0,.77-.07,1.14-.21.37-.14.68-.35.92-.63.24-.28.36-.62.36-1.03,0-.35-.12-.68-.37-.98s-.55-.57-.92-.81c-.37-.24-.87-.54-1.51-.89-.75-.42-1.37-.78-1.83-1.1s-.87-.7-1.19-1.14c-.33-.44-.49-.94-.49-1.5,0-.69.19-1.26.58-1.7.39-.45.89-.77,1.5-.98.61-.2,1.25-.31,1.93-.31.58,0,1.16.07,1.74.21.58.14,1.13.35,1.65.61l.12,2.54h-.55c-.07-.14-.15-.35-.25-.65l-.09-.26c-.2-.58-.55-1.02-1.05-1.32-.5-.3-1.07-.45-1.71-.45-.33,0-.67.06-1.01.17-.34.11-.62.29-.85.52s-.34.52-.34.87c0,.32.12.62.36.9s.53.53.88.76c.35.23.83.51,1.45.86.79.44,1.43.83,1.92,1.16.49.34.91.74,1.25,1.21.35.48.52,1.01.52,1.61,0,.74-.21,1.36-.61,1.86-.41.5-.94.86-1.59,1.09s-1.34.35-2.07.35c-.65,0-1.35-.08-2.1-.24-.75-.16-1.36-.39-1.82-.67v-2.87l.53-.02Z"/><path class="cls-2" d="M83.89,72.49c0,.53.02.91.05,1.13.04.23.12.39.27.49.14.1.38.15.71.15.2,0,.39-.02.59-.05.2-.04.37-.08.5-.12l.06.57c-.27.13-.53.23-.8.31-.27.08-.6.12-.97.12-.5,0-.89-.08-1.15-.25-.26-.17-.45-.44-.55-.81-.1-.37-.16-.89-.16-1.57v-3.95h-1.16v-.27c.35-.14.65-.3.89-.49s.44-.39.6-.59c.16-.2.34-.47.56-.8.09-.15.17-.25.22-.3.05-.05.1-.07.16-.07s.09.02.13.07c.03.05.05.13.05.23v1.64h1.96v.58h-1.94v3.97Z"/><path class="cls-2" d="M90.32,74.62c-.34-.31-.57-.72-.69-1.23-.12-.5-.18-1.1-.18-1.8v-2.32c-.07-.12-.19-.23-.38-.32-.18-.1-.37-.18-.57-.24-.19-.06-.29-.09-.29-.09l.02-.27,2.19-.53.48-.03v3.72c0,.66.04,1.19.12,1.57.08.38.22.66.42.83s.47.26.83.26c.72,0,1.4-.32,2.04-.95v-3.95c-.07-.12-.19-.23-.38-.32-.18-.1-.37-.18-.57-.24-.19-.06-.29-.09-.29-.09l.02-.27,2.19-.53.48-.03v5.58c0,.22.05.39.16.5s.24.2.41.25c.16.05.38.1.66.15,0,.08,0,.16-.01.24s-.01.14-.01.17l-2.55.37-.06-1.25c-.77.86-1.63,1.29-2.58,1.29-.63,0-1.11-.16-1.45-.47Z"/><path class="cls-2" d="M104.83,65.47c-.19-.1-.38-.19-.57-.26-.18-.07-.3-.12-.36-.13v-.27s2.21-.53,2.21-.53l.56-.05v9.17c0,.31.13.53.4.67.27.13.55.2.86.2v.43l-2.08.34h-.52l-.07-1.21c-.37.43-.75.74-1.16.95s-.84.32-1.3.32c-.59,0-1.12-.14-1.61-.42-.49-.28-.87-.68-1.15-1.19-.28-.51-.42-1.1-.42-1.76,0-.76.16-1.45.47-2.05.31-.6.75-1.07,1.3-1.41.55-.34,1.17-.51,1.85-.51.32,0,.62.05.93.14.3.1.65.24,1.06.43v-2.54c-.07-.1-.2-.21-.39-.31ZM105.1,69.75c-.09-.31-.27-.58-.54-.82-.21-.18-.43-.32-.67-.42-.24-.1-.48-.15-.72-.15-.41,0-.77.13-1.09.4-.32.26-.56.62-.74,1.06-.17.44-.26.91-.26,1.42s.09.96.26,1.41.43.82.78,1.1.77.43,1.26.43c.39,0,.75-.09,1.06-.26.31-.17.57-.41.79-.7v-2.24c0-.5-.04-.91-.13-1.22Z"/><path class="cls-2" d="M111.05,68.95c-.18-.1-.37-.18-.57-.24-.2-.06-.29-.09-.29-.09l.02-.27,2.19-.53.48-.03v5.44c0,.18.02.35.06.51.04.16.16.32.36.49.2.17.51.27.95.32,0,.17,0,.3,0,.39h-4.07c-.01-.09-.02-.22-.02-.39l.22-.06c.23-.06.41-.12.55-.19.14-.06.26-.15.36-.28s.15-.29.15-.49v-4.25c-.07-.12-.19-.23-.38-.32ZM112.69,64.49c.18.18.26.39.26.64s-.09.47-.26.64c-.18.17-.39.26-.64.26s-.47-.09-.64-.26c-.17-.17-.26-.39-.26-.64s.09-.46.26-.64c.17-.18.39-.26.64-.26s.46.09.64.26Z"/><path class="cls-2" d="M122.15,68.17c.57.3,1.02.72,1.35,1.28.33.55.5,1.2.5,1.93s-.17,1.38-.5,1.94c-.33.56-.78,1-1.33,1.31s-1.16.46-1.82.46-1.27-.16-1.84-.48c-.57-.32-1.03-.76-1.37-1.32-.34-.56-.51-1.2-.51-1.91s.17-1.35.5-1.9c.33-.56.78-.99,1.34-1.3.56-.31,1.16-.46,1.8-.46.69,0,1.32.15,1.89.45ZM121.95,73.78c.34-.47.51-1.09.51-1.86,0-.66-.09-1.28-.28-1.83s-.45-1-.79-1.34c-.34-.33-.74-.5-1.18-.5-.39,0-.74.1-1.05.29-.3.19-.54.49-.72.89s-.26.9-.26,1.5.09,1.16.28,1.71.45.99.79,1.34.74.51,1.19.51c.66,0,1.16-.24,1.5-.71Z"/><path class="cls-2" d="M84.69,83.91l-.21-.54c-.1-.24-.17-.42-.22-.53-.07-.06-.31-.17-.73-.33-.33-.13-.56-.23-.7-.29-.14-.06-.21-.12-.21-.18,0-.01,0-.04.03-.09.02-.05.03-.08.04-.09h5.71s.02.05.03.09c.01.04.02.07.02.09,0,.14-.06.23-.19.27-.13.04-.33.07-.6.1-.3.02-.53.06-.69.12-.15.06-.23.17-.23.35,0,.12.33,1.24,1,3.34.67,2.1,1.11,3.46,1.32,4.08l.25-.76c1.39-4.15,2.08-6.36,2.08-6.65,0-.18-.09-.31-.27-.39-.18-.07-.44-.13-.78-.18-.14-.02-.28-.04-.42-.07-.14-.03-.24-.07-.32-.11l-.05-.1.05-.18h4.6s.05,0,.09.03c.04.02.06.04.07.07,0,.09-.07.16-.2.21-.14.05-.36.11-.66.17-.45.09-.8.2-1.06.31-.26.11-.43.28-.52.5-.07.18-.13.4-.21.64s-.12.41-.15.51c-.04.14-.07.25-.09.32l-2.66,8.82c-.04.12-.16.18-.37.18-.09,0-.17-.01-.24-.04-.06-.02-.11-.07-.15-.14-.11-.22-.23-.54-.34-.97l-.16-.51-2.53-7.36-2.31,6.63c-.05.15-.13.39-.22.72-.11.37-.21.67-.29.88s-.16.42-.26.61c-.04.08-.08.13-.14.16-.06.03-.14.04-.23.04-.18,0-.33-.12-.45-.37-.12-.25-.25-.57-.37-.96l-.09-.28-1.22-3.27c-.66-1.79-1.33-3.57-2-5.34-.09-.24-.23-.42-.41-.55s-.42-.24-.73-.35c-.23-.08-.4-.15-.52-.21-.12-.06-.23-.14-.33-.24l.06-.2h5.72s.01.05.03.08c.01.04.02.07.02.09,0,.12-.06.2-.17.24-.12.04-.29.08-.52.11-.28.04-.5.09-.65.16s-.23.19-.23.38c0,.08.32,1.03.96,2.83s1.18,3.32,1.62,4.55l2.39-6.39Z"/><path class="cls-2" d="M103.8,92.66c.21.23.5.36.88.39,0,.08,0,.16,0,.23s0,.13,0,.16h-3.83s0-.08,0-.16c0-.08,0-.15,0-.23.09-.04.26-.1.51-.18.2-.06.34-.12.43-.18.09-.05.16-.15.21-.29.05-.14.07-.35.07-.63v-2.83c0-.57-.12-1.03-.36-1.37-.24-.34-.62-.51-1.13-.51-.37,0-.73.1-1.07.29-.35.19-.66.45-.95.75v3.51c0,.47.11.81.32,1.03.21.22.56.35,1.04.4v.39h-4.16s0-.08,0-.16,0-.15,0-.23c.91-.07,1.36-.55,1.36-1.42v-7.25c-.05-.08-.17-.17-.34-.28-.18-.11-.36-.21-.56-.3-.19-.09-.34-.14-.43-.15v-.27l2.23-.59.55-.05v4.73c.41-.41.81-.72,1.21-.92.39-.21.85-.31,1.37-.31.72,0,1.3.23,1.74.69.44.46.65,1.16.65,2.1v2.7c0,.4.1.71.31.94Z"/><path class="cls-2" d="M111.27,87.71c-.07-.27-.21-.49-.42-.65-.21-.17-.51-.25-.9-.25-.14,0-.3.03-.5.08-.2.06-.37.14-.52.25-.15.11-.22.23-.22.37,0,.06,0,.11.03.17.02.05.05.12.1.21.05.08.08.15.1.2.02.06.03.12.03.18,0,.21-.07.38-.2.52-.13.14-.3.21-.51.21-.26,0-.47-.1-.62-.29-.15-.19-.23-.42-.23-.69,0-.41.16-.74.47-1,.32-.26.7-.46,1.15-.58.45-.12.87-.19,1.26-.19.73,0,1.28.11,1.64.32.36.22.6.53.72.94.12.41.17.99.17,1.73l-.02.39c0,.11-.01.3-.02.57,0,.26-.01.51-.01.73,0,1.17.12,1.75.37,1.75.18,0,.41-.18.69-.54l.33.35c-.23.37-.45.65-.68.84-.22.18-.52.28-.88.28-.34,0-.62-.11-.84-.32-.22-.22-.34-.5-.36-.84-.33.36-.71.65-1.12.85-.41.21-.85.31-1.31.31-.32,0-.62-.06-.89-.17s-.49-.29-.65-.53c-.16-.23-.25-.51-.25-.84,0-.49.19-.9.57-1.23.38-.33.81-.58,1.31-.75.49-.17,1.09-.34,1.81-.51.06-.01.23-.05.51-.12v-.74c0-.39-.04-.72-.11-.99ZM111.08,89.99c-.45.15-.83.28-1.14.42-.32.13-.6.31-.85.53-.25.22-.37.49-.37.79s.08.55.25.72c.17.18.41.26.71.26s.6-.08.89-.23c.29-.15.56-.35.81-.6v-1.99c-.08.03-.18.06-.3.09Z"/><path class="cls-2" d="M119.03,92.29c.05.19.19.36.39.5.21.15.52.23.93.26v.39h-4.07s0-.11,0-.2c0-.09,0-.17,0-.22l.26-.07c.28-.07.47-.14.59-.2s.21-.17.27-.33c.06-.16.09-.4.09-.73v-3.92c-.07-.11-.19-.22-.37-.32-.18-.1-.37-.17-.56-.24s-.29-.09-.29-.09l.02-.27,2.07-.55h.44l.12,1.43c.29-.54.59-.91.91-1.14.31-.22.67-.33,1.08-.33.21,0,.4.04.56.13s.3.19.4.33c.1.13.14.27.14.4,0,.09-.02.21-.07.36-.05.15-.12.28-.23.4-.1.11-.22.17-.37.17-.17,0-.3-.04-.39-.11-.09-.08-.19-.19-.29-.34-.07-.11-.14-.2-.21-.26-.06-.06-.15-.09-.25-.09-.17,0-.32.05-.45.14-.13.1-.25.21-.35.35-.1.14-.22.33-.36.56l-.12.19v3.13c0,.24.03.46.08.65Z"/><path class="cls-2" d="M127.3,91.42c0,.31.02.56.05.75.03.19.16.38.39.56.23.18.59.29,1.1.32,0,.16,0,.29,0,.39h-4.37c-.01-.2-.02-.33-.02-.39.12-.04.25-.07.37-.09.28-.07.49-.14.62-.2.13-.06.23-.17.31-.32.08-.15.11-.37.11-.67v-4.74h-1.21l-.02-.58h.54c.19,0,.33,0,.41-.03s.15-.07.19-.14c.04-.08.06-.21.06-.39.02-1.01.27-1.79.76-2.33.48-.54,1.17-.81,2.05-.81.54,0,.99.1,1.35.3.36.2.54.47.54.82,0,.2-.06.37-.19.5-.13.13-.31.2-.54.2-.19,0-.33-.06-.42-.17-.1-.11-.19-.28-.29-.5s-.19-.39-.28-.5c-.09-.11-.23-.16-.41-.16-.24,0-.43.07-.59.2-.15.14-.27.37-.35.7-.08.33-.12.78-.12,1.36v.95h1.79l.02.58h-1.81v4.4Z"/><path class="cls-2" d="M134.04,91.42c0,.31.02.56.05.75.03.19.16.38.39.56.23.18.59.29,1.1.32,0,.16,0,.29,0,.39h-4.37c-.01-.2-.02-.33-.02-.39.12-.04.25-.07.37-.09.28-.07.49-.14.62-.2.13-.06.23-.17.31-.32.08-.15.11-.37.11-.67v-4.74h-1.21l-.02-.58h.54c.19,0,.33,0,.41-.03s.15-.07.19-.14c.04-.08.06-.21.06-.39.02-1.01.27-1.79.76-2.33.48-.54,1.17-.81,2.05-.81.54,0,.99.1,1.35.3.36.2.54.47.54.82,0,.2-.06.37-.19.5-.13.13-.31.2-.54.2-.19,0-.33-.06-.42-.17-.1-.11-.19-.28-.29-.5s-.19-.39-.28-.5c-.09-.11-.23-.16-.41-.16-.24,0-.43.07-.59.2-.15.14-.27.37-.35.7-.08.33-.12.78-.12,1.36v.95h1.79l.02.58h-1.81v4.4Z"/><path class="cls-2" d="M25.92,62.34l6.18,3.74-.09.09-3.81-6.11.79-.79,3.86,6.36-1.32,1.32-5.56-3.39.15-.15,3.39,5.56-1.31,1.31-6.37-3.86.83-.83,6.13,3.79-.1.1-3.75-6.17.97-.97Z"/><path class="cls-2" d="M37.02,57.9c.39.39.64.8.77,1.24.13.44.12.87,0,1.3-.13.43-.38.83-.75,1.2-.37.37-.76.61-1.19.74-.43.13-.86.14-1.29.02-.44-.12-.84-.37-1.22-.74l-.21-.21c-.39-.39-.65-.81-.78-1.25-.13-.44-.13-.88,0-1.32.13-.43.37-.83.73-1.19.37-.37.77-.62,1.2-.75s.86-.13,1.3,0c.44.12.85.38,1.24.76l.21.21ZM34.1,60.82c.41.41.82.62,1.23.63.41,0,.76-.14,1.08-.45.32-.32.47-.68.46-1.08-.01-.4-.21-.8-.61-1.19l-.21-.21c-.41-.41-.82-.63-1.24-.65-.42-.02-.78.12-1.09.44-.31.31-.46.67-.44,1.09.02.41.22.82.62,1.22l.21.21Z"/><path class="cls-2" d="M42.2,52.72c.39.39.64.8.77,1.24.12.44.12.87,0,1.3-.13.43-.38.83-.75,1.2-.37.37-.76.61-1.19.74-.43.13-.86.14-1.29.01-.44-.12-.84-.37-1.22-.74l-.21-.21c-.39-.39-.65-.81-.78-1.25-.13-.44-.13-.88,0-1.32.13-.43.37-.83.73-1.19.37-.37.77-.62,1.2-.75.43-.13.86-.13,1.3,0,.44.12.85.38,1.24.76l.21.21ZM39.28,55.64c.41.41.82.62,1.23.63.41,0,.76-.14,1.08-.45.32-.32.47-.68.45-1.08-.01-.4-.21-.8-.6-1.19l-.21-.21c-.41-.41-.83-.63-1.24-.65-.42-.02-.78.12-1.09.44-.31.31-.46.67-.44,1.09.02.41.22.82.62,1.21l.21.21Z"/><path class="cls-2" d="M43.44,51.03c-.39-.39-.64-.79-.77-1.22s-.14-.84-.03-1.24c.1-.4.31-.76.62-1.07.25-.25.53-.43.82-.54.3-.11.6-.15.92-.11.31.04.62.16.91.37l-.4.04-2.38-2.38.79-.79,5.25,5.25-.76.76-.91-.91v-.37c.29.46.41.92.35,1.4-.06.48-.28.9-.65,1.28-.31.31-.66.51-1.06.62-.4.1-.81.09-1.24-.04-.43-.14-.83-.39-1.21-.77l-.24-.24ZM44.05,47.97c-.31.31-.45.67-.42,1.08.03.41.23.8.61,1.18l.24.24c.38.38.78.58,1.19.61.41.02.77-.12,1.08-.43.32-.32.48-.69.47-1.11,0-.42-.19-.8-.54-1.15l-.36-.36c-.24-.24-.49-.39-.76-.46-.27-.07-.54-.08-.8-.01-.26.07-.49.2-.7.41Z"/><path class="cls-2" d="M50.26,40.67l4.58,2.67-.12.12-2.71-4.53.77-.77,2.75,4.8-1.18,1.18-4.2-2.44.2-.2,2.44,4.2-1.17,1.17-4.8-2.75.81-.81,4.53,2.71-.12.12-2.67-4.58.89-.89Z"/><path class="cls-2" d="M59.7,35.22c.39.39.64.8.77,1.24.12.44.12.87,0,1.3-.13.43-.38.82-.75,1.2-.37.37-.76.61-1.19.74-.43.13-.86.14-1.29.01-.44-.12-.84-.37-1.22-.74l-.21-.21c-.39-.39-.65-.81-.78-1.25-.13-.44-.13-.88,0-1.32.13-.43.37-.83.73-1.19.37-.37.77-.62,1.2-.75.43-.13.86-.13,1.3,0,.44.12.85.38,1.24.76l.21.21ZM56.77,38.15c.41.41.82.62,1.23.63.41,0,.76-.14,1.08-.45.32-.32.47-.68.46-1.08-.01-.4-.21-.8-.61-1.19l-.21-.21c-.41-.41-.82-.63-1.24-.65-.42-.02-.78.12-1.09.44-.31.31-.46.67-.44,1.09.02.41.22.82.62,1.21l.21.21Z"/><path class="cls-2" d="M63.05,35.44l-3.77-3.77.75-.75.94.94-.08.08c-.25-.38-.37-.74-.36-1.09,0-.35.19-.71.55-1.07l.29-.29.68.68-.31.31c-.36.36-.54.71-.52,1.05.01.34.21.7.58,1.07l2.05,2.05-.79.79Z"/><path class="cls-2" d="M66.52,31.96l-5.25-5.25.79-.79,5.25,5.25-.79.79ZM68.99,29.5l-3.71-.34-.08-3.43.95-.95.02,3.84-.39-.44,4.2.32-.99.99Z"/><path class="cls-2" d="M72.79,25.87c-.35.35-.7.58-1.04.7s-.67.14-.97.07c-.3-.07-.57-.21-.8-.41l.78-.78c.19.16.42.24.68.23.27,0,.54-.15.83-.44.23-.23.37-.46.41-.69.04-.23-.02-.42-.18-.59-.15-.15-.3-.21-.47-.19s-.34.08-.52.19l-1.02.65c-.35.22-.69.34-1.02.38s-.65-.1-.95-.39c-.24-.24-.38-.52-.43-.82-.04-.31,0-.63.14-.96.14-.33.36-.65.67-.96.35-.35.69-.58,1.02-.69.33-.11.64-.13.93-.06.29.07.54.2.74.38l-.75.75c-.18-.14-.39-.2-.63-.2-.25,0-.51.15-.78.42-.23.23-.36.45-.4.68-.04.23.02.42.18.58.13.14.28.19.43.15.15-.03.32-.1.5-.21l1.03-.64c.36-.23.71-.35,1.05-.37.35-.02.67.12.98.43.25.25.4.53.44.84.04.31-.01.63-.15.96-.14.33-.37.66-.69.98Z"/></g></svg>